<svg xmlns="http://www.w3.org/2000/svg" version="1.1" viewBox="-5.0 -10.0 110.0 135.0">
 <path d="m91.668 20.832v58.332c0 6.8945-5.6055 12.5-12.5 12.5l-58.336 0.003907c-6.8945 0-12.5-5.6055-12.5-12.5v-58.336c0-6.8945 5.6055-12.5 12.5-12.5h25v39.941l-5.3867-5.3867c-1.6289-1.6289-4.2656-1.6289-5.8906 0-1.6289 1.6289-1.6289 4.2656 0 5.8906l12.5 12.5c0.8125 0.81641 1.8789 1.2227 2.9453 1.2227s2.1328-0.40625 2.9453-1.2227l12.5-12.5c1.6289-1.6289 1.6289-4.2656 0-5.8906-1.6289-1.6289-4.2656-1.6289-5.8906 0l-5.3867 5.3867v-39.941h25c6.8906 0 12.5 5.6094 12.5 12.5z"/>
</svg>