<svg xmlns="http://www.w3.org/2000/svg" version="1.1" viewBox="-5.0 -10.0 110.0 135.0">
 <path  d="m25.906 87.5h26.969c6.375 0 11.562-5.1875 11.562-11.562v-15.219c0-6.4062-5.1875-11.594-11.562-11.594-1.7188 0-3.125-1.375-3.125-3.125 0-1.7188 1.4062-3.125 3.125-3.125 9.8438 0 17.812 8 17.812 17.844v15.219c0 4.4062-1.5938 8.4375-4.25 11.562h8.2188c6.0625 0 11-4.9375 11-11v-34.375c0-3.625-1.7188-7.0938-4.625-9.2812l-24.094-18.031c-4.0938-3.0625-9.7812-3.0625-13.875 0l-24.094 18.031c-2.9062 2.1875-4.625 5.6562-4.625 9.2812v33.812c0 6.375 5.1875 11.562 11.562 11.562z"/>
</svg>