<svg xmlns="http://www.w3.org/2000/svg" version="1.1" viewBox="-5.0 -10.0 110.0 135.0">
 <path  d="m76.34 0h-52.68c-13.051 0-23.66 10.609-23.66 23.66v52.672c0 13.059 10.609 23.668 23.66 23.668h52.672c13.059 0 23.668-10.609 23.668-23.66v-52.68c0-13.051-10.609-23.66-23.66-23.66zm-10.699 73.23h-31.281c-1.2812 0-2.3086-1.0391-2.3086-2.3086 0-1.2812 1.0312-2.3086 2.3086-2.3086h13.328v-36.102c-0.070312 0.10156-0.14844 0.21094-0.21875 0.32812l-8.2695 14.328c-0.42969 0.73828-1.2109 1.1484-2.0117 1.1484-0.39062 0-0.78125-0.10156-1.1484-0.30859-1.1016-0.62891-1.4805-2.0391-0.83984-3.1484l8.2695-14.328c0.67969-1.1914 1.6289-2.1211 2.7617-2.7695 1.1211-0.66016 2.4102-1 3.7695-1 2.7305 0 5.1719 1.4102 6.5312 3.7695l8.2695 14.328c0.64844 1.1094 0.26953 2.5195-0.83984 3.1484-1.1016 0.62891-2.5195 0.26953-3.1484-0.83984l-8.2695-14.328c-0.070313-0.12891-0.14844-0.23047-0.23047-0.32031v36.09h13.34c1.2695 0 2.3086 1.0312 2.3086 2.3086-0.011719 1.2734-1.0508 2.3125-2.3203 2.3125z"/>
</svg>