<svg xmlns="http://www.w3.org/2000/svg" version="1.1" viewBox="-5.0 -10.0 110.0 135.0">
 <path fill="#9719dd" d="m97.145 23.855c0.71484-0.82031 0.30859-2.1484-0.82031-2.3516l-11.871-2.3516c-0.41016-0.10156-0.82031-0.30859-1.0234-0.71484l-5.832-10.539c-0.51172-1.0234-1.9453-1.0234-2.5586 0l-5.7266 10.535c-0.20312 0.41016-0.61328 0.61328-1.0234 0.71484l-11.871 2.3555c-1.125 0.20312-1.5352 1.5352-0.82031 2.3516l8.2891 8.9023c0.30859 0.30859 0.41016 0.71484 0.41016 1.125l-1.4336 11.973c-0.10156 1.125 1.0234 1.9453 2.0469 1.4336l10.949-5.1172c0.41016-0.20312 0.82031-0.20312 1.2266 0l10.949 5.1172c1.0234 0.51172 2.1484-0.30859 2.0469-1.4336l-1.4336-11.973c0-0.41016 0.10156-0.82031 0.41016-1.125z"/>
 <path fill="#9719dd" d="m81.406 67.277c-2.6797 0.26172-5.4102 0.32422-8.2148 0.089844-24.555-1.8594-42.93-23.359-40.973-47.938 0.23438-2.8047 0.71484-5.4648 1.4219-8.0742 0.67969-2.707-1.9375-5.1016-4.4883-3.9219-16.316 7.2305-27.699 23.867-26.582 43.543 1.1445 19.773 15.625 36.773 35.055 40.895 19.203 4.0703 37.477-4.6094 47.078-19.523 1.4062-2.3672-0.51953-5.3594-3.2969-5.0703z"/>
</svg>