<svg fill="#ffb80d"  xmlns="http://www.w3.org/2000/svg" viewBox="0 0 100 125" x="0px" y="0px"><circle cx="50" cy="50" r="26.25"/><path 
d="M50,18.125c-2.071,0-3.75-1.679-3.75-3.75v-5.625c0-2.071,1.679-3.75,3.75-3.75s3.75,1.679,3.75,3.75v5.625c0,2.071-1.679,3.75-3.75,3.75Z"/><path fill="#ffb80d" d="M50,95c-2.071,0-3.75-1.679-3.75-3.75v-5.625c0-2.071,1.679-3.75,3.75-3.75s3.75,1.679,3.75,3.75v5.625c0,2.071-1.679,3.75-3.75,3.75Z"/><path fill="#ffb80d" d="M91.25,53.75h-5.625c-2.071,0-3.75-1.679-3.75-3.75s1.679-3.75,3.75-3.75h5.625c2.071,0,3.75,1.679,3.75,3.75s-1.679,3.75-3.75,3.75Z"/><path fill="#ffb80d" d="M14.375,53.75h-5.625c-2.071,0-3.75-1.679-3.75-3.75s1.679-3.75,3.75-3.75h5.625c2.071,0,3.75,1.679,3.75,3.75s-1.679,3.75-3.75,3.75Z"/><path fill="#ffb80d" d="M23.712,27.462c-.959,0-1.919-.366-2.651-1.099l-3.979-3.979c-1.465-1.465-1.465-3.838,0-5.303s3.838-1.465,5.303,0l3.979,3.979c1.465,1.465,1.465,3.838,0,5.303-.732,.732-1.692,1.099-2.651,1.099Z"/><path d="M80.267,84.017c-.959,0-1.919-.366-2.651-1.099l-3.979-3.979c-1.465-1.465-1.465-3.838,0-5.303s3.838-1.465,5.303,0l3.979,3.979c1.465,1.465,1.465,3.838,0,5.303-.732,.732-1.692,1.099-2.651,1.099Z"/><path d="M76.288,27.462c-.959,0-1.919-.366-2.651-1.099-1.465-1.465-1.465-3.838,0-5.303l3.979-3.979c1.465-1.465,3.838-1.465,5.303,0s1.465,3.838,0,5.303l-3.979,3.979c-.732,.732-1.692,1.099-2.651,1.099Z"/><path d="M19.733,84.017c-.959,0-1.919-.366-2.651-1.099-1.465-1.465-1.465-3.838,0-5.303l3.979-3.979c1.465-1.465,3.838-1.465,5.303,0s1.465,3.838,0,5.303l-3.979,3.979c-.732,.732-1.692,1.099-2.651,1.099Z"/></svg>