<svg xmlns="http://www.w3.org/2000/svg" version="1.1" viewBox="-5.0 -10.0 110.0 135.0">
 <path fill="#fdfdfd" d="m50 13.379c-22.539 0-40.879 18.34-40.879 40.879 0 10.852 4.1992 21.059 11.828 28.762 4.4883 4.5312 11.691 4.8086 16.391 0.62891 0 0 0.10156-0.089844 0.10938-0.10156l0.17188-0.14844c5.6289-5.0898 8.8594-12.57 8.8594-20.512v-18.281l-7.3281 7.3281c-1.3789 1.3789-3.6094 1.3789-4.9883 0-1.3789-1.3789-1.3789-3.6211 0-4.9883l13.352-13.352c0.17188-0.17188 0.35156-0.32031 0.53906-0.44922 0.078124-0.050781 0.16016-0.089843 0.23828-0.12891 0.12109-0.070313 0.23828-0.14062 0.35938-0.19141 0.10938-0.050781 0.23047-0.070313 0.33984-0.10938 0.10937-0.03125 0.21094-0.070313 0.32031-0.089844 0.46094-0.089844 0.92969-0.089844 1.3789 0 0.10938 0.019531 0.21094 0.058594 0.30859 0.089844 0.12109 0.03125 0.23047 0.058594 0.33984 0.10938 0.12891 0.050781 0.23828 0.12109 0.35938 0.19141 0.078125 0.050781 0.17188 0.078125 0.25 0.12891 0.19922 0.12891 0.37891 0.28125 0.53906 0.44922l13.352 13.352c1.3789 1.3789 1.3789 3.6211 0 4.9883-0.69141 0.69141-1.5898 1.0312-2.5 1.0312s-1.8086-0.33984-2.5-1.0312l-7.3281-7.3281v18.281c0 7.9297 3.2305 15.41 8.8711 20.52l0.14844 0.14062 0.10938 0.10156c4.6992 4.1797 11.898 3.8984 16.391-0.62891 7.6289-7.6992 11.828-17.922 11.828-28.762 0-22.539-18.34-40.879-40.879-40.879z"/>
</svg>