<svg version="1.1" id="Layer_1" xmlns="http://www.w3.org/2000/svg" xmlns:xlink="http://www.w3.org/1999/xlink" x="0px" y="0px"
	 width="100%" viewBox="0 0 2000 1996" enable-background="new 0 0 2000 1996" xml:space="preserve">
<path fill="transparent" opacity="1.000000" stroke="none" 
	d="
M1111.000000,1997.000000 
	C740.666687,1997.000000 370.833344,1997.000000 1.000000,1997.000000 
	C1.000000,1331.666626 1.000000,666.333313 1.000000,1.000000 
	C667.666687,1.000000 1334.333374,1.000000 2001.000000,1.000000 
	C2001.000000,666.333313 2001.000000,1331.666626 2001.000000,1997.000000 
	C1704.500000,1997.000000 1408.000000,1997.000000 1111.000000,1997.000000 
M1259.201904,42.159592 
	C1258.374023,42.092468 1257.534424,42.092175 1256.720093,41.948326 
	C1241.628540,39.282417 1226.577759,36.357700 1211.439331,33.993393 
	C1198.408569,31.958263 1185.294189,30.422070 1172.188110,28.915956 
	C1159.402710,27.446730 1146.582397,25.262758 1133.774902,25.246426 
	C1114.625000,25.222004 1098.169434,32.419632 1085.743774,47.685814 
	C1077.307617,58.050282 1072.132202,69.895363 1072.124023,83.107254 
	C1071.959961,347.772217 1071.962280,612.437317 1072.100830,877.102356 
	C1072.109009,892.659790 1078.960693,906.164246 1089.690063,916.953064 
	C1102.230713,929.563538 1118.257690,934.989075 1136.026001,934.989807 
	C1396.357788,935.001221 1656.689575,935.011230 1917.021362,934.910767 
	C1922.915771,934.908508 1928.995239,934.308350 1934.671509,932.796997 
	C1957.923462,926.605774 1972.875732,911.845642 1979.336182,888.473694 
	C1982.712402,876.259705 1980.823608,864.003784 1979.762329,851.889221 
	C1978.181396,833.843872 1975.796265,815.835693 1972.920532,797.945496 
	C1969.287476,775.344482 1965.576172,752.706726 1960.537231,730.392273 
	C1952.327881,694.037964 1942.265015,658.126953 1928.851440,623.308472 
	C1919.069336,597.916077 1909.360474,572.400269 1897.691772,547.855591 
	C1885.005615,521.170288 1870.617065,495.244446 1855.971680,469.557129 
	C1845.349976,450.927277 1833.811768,432.720367 1821.393799,415.240021 
	C1806.610107,394.429596 1790.823730,374.294464 1774.765869,354.437622 
	C1761.886597,338.511658 1748.553711,322.858521 1734.334717,308.134308 
	C1717.141357,290.329803 1699.020020,273.397247 1680.881836,256.537537 
	C1668.774292,245.283585 1656.481445,234.092804 1643.307129,224.151825 
	C1618.832520,205.683899 1594.266235,187.208542 1568.595093,170.491348 
	C1542.769165,153.673309 1515.868896,138.414261 1488.832642,123.577660 
	C1471.041626,113.814529 1452.431396,105.409515 1433.735229,97.461090 
	C1401.842529,83.902420 1369.535400,71.271362 1336.083862,62.025345 
	C1310.847900,55.050159 1285.364136,48.972324 1259.201904,42.159592 
M292.982941,277.519440 
	C288.208374,282.293152 283.299896,286.941345 278.684814,291.864532 
	C265.876648,305.527740 252.898575,319.048798 240.540466,333.111847 
	C228.779922,346.494843 217.079758,360.019836 206.499161,374.329803 
	C191.148056,395.091736 176.430267,416.353271 162.198837,437.901306 
	C151.767212,453.695984 142.019440,470.002380 132.929733,486.607758 
	C122.142197,506.314789 112.103516,526.449219 102.286888,546.663940 
	C96.026131,559.556213 90.437683,572.802124 85.107880,586.113831 
	C73.155670,615.965515 62.247143,646.209717 53.920902,677.293640 
	C48.258587,698.432373 42.887661,719.665344 38.091206,741.014526 
	C34.523708,756.893555 31.863678,772.989929 29.223068,789.059082 
	C27.432524,799.955322 26.227079,810.956116 25.032967,821.939758 
	C23.819286,833.103271 23.229530,844.339417 21.835533,855.477234 
	C20.376459,867.135071 20.674934,878.365906 24.714066,889.654541 
	C32.530739,911.500732 55.697929,929.067444 79.739906,929.058777 
	C342.900574,928.964355 606.061218,929.033813 869.221802,928.828552 
	C876.797607,928.822632 884.715881,927.255432 891.882141,924.733276 
	C914.078796,916.921448 929.997742,893.409973 929.997986,869.823975 
	C930.000183,606.163330 930.002319,342.502655 929.960999,78.841988 
	C929.960571,76.065369 929.460938,73.276855 929.056213,70.514114 
	C924.767517,41.234825 897.603577,18.796061 867.854919,20.083084 
	C856.646973,20.567974 845.457581,21.790407 834.298706,23.028214 
	C817.576416,24.883154 800.793274,26.474733 784.210144,29.226969 
	C763.583862,32.650192 742.976562,36.476631 722.644531,41.319035 
	C687.830444,49.610554 653.505432,59.649109 619.798279,71.843361 
	C577.129822,87.279518 535.671509,105.410301 496.158417,127.636147 
	C469.579590,142.586563 443.430054,158.434998 418.019897,175.286209 
	C397.050140,189.192688 377.246246,204.899521 357.291565,220.283127 
	C334.715576,237.687622 313.481079,256.669220 292.982941,277.519440 
M919.537415,1951.036621 
	C926.587708,1941.180176 929.990784,1930.148438 929.991333,1918.074829 
	C930.002258,1656.435425 929.956299,1394.795898 930.088135,1133.156494 
	C930.097961,1113.651978 924.217224,1097.085449 909.505981,1084.051025 
	C899.172058,1074.895020 887.130981,1069.086670 873.213989,1069.080933 
	C608.074951,1068.972046 342.935822,1069.000000 77.796715,1069.008545 
	C76.135307,1069.008545 74.445114,1068.957520 72.817032,1069.225708 
	C57.709595,1071.714722 45.058941,1078.707642 35.165108,1090.394165 
	C26.935688,1100.114746 21.527048,1111.427979 21.219770,1124.134766 
	C20.912392,1136.845703 21.831865,1149.656006 23.179985,1162.319824 
	C24.940924,1178.861694 27.188692,1195.383667 30.064592,1211.767212 
	C34.215984,1235.417236 38.080109,1259.198242 43.964775,1282.442749 
	C51.354862,1311.633911 59.783142,1340.636108 69.410278,1369.164185 
	C77.723846,1393.799805 87.619133,1417.978027 98.155190,1441.764893 
	C107.711365,1463.339478 118.479195,1484.439331 129.808853,1505.148926 
	C141.275894,1526.109497 153.393036,1546.790405 166.501953,1566.755737 
	C180.128799,1587.509766 194.650833,1607.755371 209.941483,1627.316528 
	C226.500504,1648.500244 244.084595,1668.913330 261.840027,1689.119019 
	C271.447083,1700.051880 282.216736,1709.982788 292.694122,1720.125732 
	C303.416077,1730.505615 314.161896,1740.888184 325.367737,1750.734009 
	C339.995667,1763.586914 354.600433,1776.553833 370.098572,1788.306641 
	C390.322296,1803.642944 410.893066,1818.648926 432.264679,1832.310791 
	C456.701508,1847.932495 481.970245,1862.299683 507.290405,1876.474365 
	C521.565735,1884.466064 536.524109,1891.299561 551.444275,1898.060181 
	C567.673279,1905.413818 583.971313,1912.739502 600.677673,1918.885742 
	C624.808594,1927.763428 649.104797,1936.346558 673.756714,1943.608765 
	C697.739380,1950.673828 722.157166,1956.373779 746.577393,1961.802856 
	C763.595093,1965.586548 780.901733,1968.147583 798.150635,1970.787964 
	C810.049988,1972.609375 822.061890,1973.723755 834.041504,1974.982666 
	C842.256775,1975.845947 850.543640,1976.104004 858.727966,1977.172607 
	C883.915527,1980.461914 904.123230,1972.285645 919.537415,1951.036621 
M1151.888062,1540.380249 
	C1142.356567,1560.375732 1132.178833,1580.094482 1123.469360,1600.441772 
	C1114.198242,1622.101562 1105.715088,1644.147705 1098.003906,1666.411743 
	C1090.728149,1687.418335 1084.314453,1708.770996 1078.608521,1730.260132 
	C1073.034790,1751.251099 1068.269409,1772.499023 1064.203491,1793.835083 
	C1060.658569,1812.436523 1058.357666,1831.288696 1055.928589,1850.084595 
	C1053.962280,1865.298828 1052.217896,1880.564575 1051.104736,1895.860474 
	C1049.622192,1916.231689 1056.387939,1933.604370 1071.824951,1947.323853 
	C1081.762695,1956.155762 1093.246094,1961.907104 1106.623901,1961.912964 
	C1372.594727,1962.028442 1638.565430,1961.999756 1904.536255,1961.979004 
	C1906.347900,1961.978882 1908.183594,1961.819214 1909.967407,1961.503662 
	C1924.465698,1958.939331 1936.398560,1952.046021 1945.887695,1940.689087 
	C1954.666382,1930.182373 1959.935547,1918.286865 1959.939697,1904.600586 
	C1960.020386,1639.963013 1959.999756,1375.325562 1959.996338,1110.687988 
	C1959.996338,1109.022217 1960.152588,1107.323975 1959.892456,1105.695679 
	C1954.769531,1073.642456 1929.128662,1053.606201 1899.033691,1053.113403 
	C1891.971802,1052.997803 1884.870850,1054.174072 1877.815063,1054.990234 
	C1858.317871,1057.245239 1838.740601,1059.029785 1819.371460,1062.110107 
	C1797.096924,1065.652466 1774.895752,1069.859741 1752.870239,1074.718506 
	C1716.940918,1082.644409 1681.571167,1092.797363 1647.296631,1106.196899 
	C1619.043213,1117.242920 1591.061279,1129.068848 1563.426758,1141.582031 
	C1545.990234,1149.477783 1529.269409,1159.011353 1512.484985,1168.276489 
	C1484.449219,1183.752686 1457.612427,1201.130859 1431.490845,1219.679688 
	C1397.515869,1243.805054 1365.437134,1270.232910 1335.032959,1298.646973 
	C1320.588989,1312.145630 1306.955078,1326.560181 1293.554443,1341.112549 
	C1279.218994,1356.680176 1265.030884,1372.449951 1251.800293,1388.950928 
	C1236.559448,1407.959229 1222.059937,1427.595581 1207.918213,1447.443359 
	C1187.025146,1476.766602 1169.170410,1507.988403 1151.888062,1540.380249 
z"/>
<path fill="#ff4121" opacity="1.000000" stroke="none" 
	d="
M1259.596191,42.327335 
	C1285.364136,48.972324 1310.847900,55.050159 1336.083862,62.025345 
	C1369.535400,71.271362 1401.842529,83.902420 1433.735229,97.461090 
	C1452.431396,105.409515 1471.041626,113.814529 1488.832642,123.577660 
	C1515.868896,138.414261 1542.769165,153.673309 1568.595093,170.491348 
	C1594.266235,187.208542 1618.832520,205.683899 1643.307129,224.151825 
	C1656.481445,234.092804 1668.774292,245.283585 1680.881836,256.537537 
	C1699.020020,273.397247 1717.141357,290.329803 1734.334717,308.134308 
	C1748.553711,322.858521 1761.886597,338.511658 1774.765869,354.437622 
	C1790.823730,374.294464 1806.610107,394.429596 1821.393799,415.240021 
	C1833.811768,432.720367 1845.349976,450.927277 1855.971680,469.557129 
	C1870.617065,495.244446 1885.005615,521.170288 1897.691772,547.855591 
	C1909.360474,572.400269 1919.069336,597.916077 1928.851440,623.308472 
	C1942.265015,658.126953 1952.327881,694.037964 1960.537231,730.392273 
	C1965.576172,752.706726 1969.287476,775.344482 1972.920532,797.945496 
	C1975.796265,815.835693 1978.181396,833.843872 1979.762329,851.889221 
	C1980.823608,864.003784 1982.712402,876.259705 1979.336182,888.473694 
	C1972.875732,911.845642 1957.923462,926.605774 1934.671509,932.796997 
	C1928.995239,934.308350 1922.915771,934.908508 1917.021362,934.910767 
	C1656.689575,935.011230 1396.357788,935.001221 1136.026001,934.989807 
	C1118.257690,934.989075 1102.230713,929.563538 1089.690063,916.953064 
	C1078.960693,906.164246 1072.109009,892.659790 1072.100830,877.102356 
	C1071.962280,612.437317 1071.959961,347.772217 1072.124023,83.107254 
	C1072.132202,69.895363 1077.307617,58.050282 1085.743774,47.685814 
	C1098.169434,32.419632 1114.625000,25.222004 1133.774902,25.246426 
	C1146.582397,25.262758 1159.402710,27.446730 1172.188110,28.915956 
	C1185.294189,30.422070 1198.408569,31.958263 1211.439331,33.993393 
	C1226.577759,36.357700 1241.628540,39.282417 1256.720093,41.948326 
	C1257.534424,42.092175 1258.374023,42.092468 1259.596191,42.327335 
z"/>
<path fill="#ff4121" opacity="1.000000" stroke="none" 
	d="
M293.234741,277.265503 
	C313.481079,256.669220 334.715576,237.687622 357.291565,220.283127 
	C377.246246,204.899521 397.050140,189.192688 418.019897,175.286209 
	C443.430054,158.434998 469.579590,142.586563 496.158417,127.636147 
	C535.671509,105.410301 577.129822,87.279518 619.798279,71.843361 
	C653.505432,59.649109 687.830444,49.610554 722.644531,41.319035 
	C742.976562,36.476631 763.583862,32.650192 784.210144,29.226969 
	C800.793274,26.474733 817.576416,24.883154 834.298706,23.028214 
	C845.457581,21.790407 856.646973,20.567974 867.854919,20.083084 
	C897.603577,18.796061 924.767517,41.234825 929.056213,70.514114 
	C929.460938,73.276855 929.960571,76.065369 929.960999,78.841988 
	C930.002319,342.502655 930.000183,606.163330 929.997986,869.823975 
	C929.997742,893.409973 914.078796,916.921448 891.882141,924.733276 
	C884.715881,927.255432 876.797607,928.822632 869.221802,928.828552 
	C606.061218,929.033813 342.900574,928.964355 79.739906,929.058777 
	C55.697929,929.067444 32.530739,911.500732 24.714066,889.654541 
	C20.674934,878.365906 20.376459,867.135071 21.835533,855.477234 
	C23.229530,844.339417 23.819286,833.103271 25.032967,821.939758 
	C26.227079,810.956116 27.432524,799.955322 29.223068,789.059082 
	C31.863678,772.989929 34.523708,756.893555 38.091206,741.014526 
	C42.887661,719.665344 48.258587,698.432373 53.920902,677.293640 
	C62.247143,646.209717 73.155670,615.965515 85.107880,586.113831 
	C90.437683,572.802124 96.026131,559.556213 102.286888,546.663940 
	C112.103516,526.449219 122.142197,506.314789 132.929733,486.607758 
	C142.019440,470.002380 151.767212,453.695984 162.198837,437.901306 
	C176.430267,416.353271 191.148056,395.091736 206.499161,374.329803 
	C217.079758,360.019836 228.779922,346.494843 240.540466,333.111847 
	C252.898575,319.048798 265.876648,305.527740 278.684814,291.864532 
	C283.299896,286.941345 288.208374,282.293152 293.234741,277.265503 
z"/>
<path fill="#ff4121" opacity="1.000000" stroke="none" 
	d="
M919.332092,1951.338379 
	C904.123230,1972.285645 883.915527,1980.461914 858.727966,1977.172607 
	C850.543640,1976.104004 842.256775,1975.845947 834.041504,1974.982666 
	C822.061890,1973.723755 810.049988,1972.609375 798.150635,1970.787964 
	C780.901733,1968.147583 763.595093,1965.586548 746.577393,1961.802856 
	C722.157166,1956.373779 697.739380,1950.673828 673.756714,1943.608765 
	C649.104797,1936.346558 624.808594,1927.763428 600.677673,1918.885742 
	C583.971313,1912.739502 567.673279,1905.413818 551.444275,1898.060181 
	C536.524109,1891.299561 521.565735,1884.466064 507.290405,1876.474365 
	C481.970245,1862.299683 456.701508,1847.932495 432.264679,1832.310791 
	C410.893066,1818.648926 390.322296,1803.642944 370.098572,1788.306641 
	C354.600433,1776.553833 339.995667,1763.586914 325.367737,1750.734009 
	C314.161896,1740.888184 303.416077,1730.505615 292.694122,1720.125732 
	C282.216736,1709.982788 271.447083,1700.051880 261.840027,1689.119019 
	C244.084595,1668.913330 226.500504,1648.500244 209.941483,1627.316528 
	C194.650833,1607.755371 180.128799,1587.509766 166.501953,1566.755737 
	C153.393036,1546.790405 141.275894,1526.109497 129.808853,1505.148926 
	C118.479195,1484.439331 107.711365,1463.339478 98.155190,1441.764893 
	C87.619133,1417.978027 77.723846,1393.799805 69.410278,1369.164185 
	C59.783142,1340.636108 51.354862,1311.633911 43.964775,1282.442749 
	C38.080109,1259.198242 34.215984,1235.417236 30.064592,1211.767212 
	C27.188692,1195.383667 24.940924,1178.861694 23.179985,1162.319824 
	C21.831865,1149.656006 20.912392,1136.845703 21.219770,1124.134766 
	C21.527048,1111.427979 26.935688,1100.114746 35.165108,1090.394165 
	C45.058941,1078.707642 57.709595,1071.714722 72.817032,1069.225708 
	C74.445114,1068.957520 76.135307,1069.008545 77.796715,1069.008545 
	C342.935822,1069.000000 608.074951,1068.972046 873.213989,1069.080933 
	C887.130981,1069.086670 899.172058,1074.895020 909.505981,1084.051025 
	C924.217224,1097.085449 930.097961,1113.651978 930.088135,1133.156494 
	C929.956299,1394.795898 930.002258,1656.435425 929.991333,1918.074829 
	C929.990784,1930.148438 926.587708,1941.180176 919.332092,1951.338379 
z"/>
<path fill="#ff4121" opacity="1.000000" stroke="none" 
	d="
M1152.013184,1540.029541 
	C1169.170410,1507.988403 1187.025146,1476.766602 1207.918213,1447.443359 
	C1222.059937,1427.595581 1236.559448,1407.959229 1251.800293,1388.950928 
	C1265.030884,1372.449951 1279.218994,1356.680176 1293.554443,1341.112549 
	C1306.955078,1326.560181 1320.588989,1312.145630 1335.032959,1298.646973 
	C1365.437134,1270.232910 1397.515869,1243.805054 1431.490845,1219.679688 
	C1457.612427,1201.130859 1484.449219,1183.752686 1512.484985,1168.276489 
	C1529.269409,1159.011353 1545.990234,1149.477783 1563.426758,1141.582031 
	C1591.061279,1129.068848 1619.043213,1117.242920 1647.296631,1106.196899 
	C1681.571167,1092.797363 1716.940918,1082.644409 1752.870239,1074.718506 
	C1774.895752,1069.859741 1797.096924,1065.652466 1819.371460,1062.110107 
	C1838.740601,1059.029785 1858.317871,1057.245239 1877.815063,1054.990234 
	C1884.870850,1054.174072 1891.971802,1052.997803 1899.033691,1053.113403 
	C1929.128662,1053.606201 1954.769531,1073.642456 1959.892456,1105.695679 
	C1960.152588,1107.323975 1959.996338,1109.022217 1959.996338,1110.687988 
	C1959.999756,1375.325562 1960.020386,1639.963013 1959.939697,1904.600586 
	C1959.935547,1918.286865 1954.666382,1930.182373 1945.887695,1940.689087 
	C1936.398560,1952.046021 1924.465698,1958.939331 1909.967407,1961.503662 
	C1908.183594,1961.819214 1906.347900,1961.978882 1904.536255,1961.979004 
	C1638.565430,1961.999756 1372.594727,1962.028442 1106.623901,1961.912964 
	C1093.246094,1961.907104 1081.762695,1956.155762 1071.824951,1947.323853 
	C1056.387939,1933.604370 1049.622192,1916.231689 1051.104736,1895.860474 
	C1052.217896,1880.564575 1053.962280,1865.298828 1055.928589,1850.084595 
	C1058.357666,1831.288696 1060.658569,1812.436523 1064.203491,1793.835083 
	C1068.269409,1772.499023 1073.034790,1751.251099 1078.608521,1730.260132 
	C1084.314453,1708.770996 1090.728149,1687.418335 1098.003906,1666.411743 
	C1105.715088,1644.147705 1114.198242,1622.101562 1123.469360,1600.441772 
	C1132.178833,1580.094482 1142.356567,1560.375732 1152.013184,1540.029541 
z"/>
</svg>